<svg id="visual" viewBox="0 0 900 600" width="900" height="600" xmlns="http://www.w3.org/2000/svg" xmlns:xlink="http://www.w3.org/1999/xlink" version="1.1"><rect x="0" y="0" width="900" height="600" fill="#92e8c3"></rect><path d="M0 390L21.5 402.3C43 414.7 86 439.3 128.8 459.2C171.7 479 214.3 494 257.2 502C300 510 343 511 385.8 499.5C428.7 488 471.3 464 514.2 451.2C557 438.3 600 436.7 642.8 442.2C685.7 447.7 728.3 460.3 771.2 466.8C814 473.3 857 473.7 878.5 473.8L900 474L900 601L878.5 601C857 601 814 601 771.2 601C728.3 601 685.7 601 642.8 601C600 601 557 601 514.2 601C471.3 601 428.7 601 385.8 601C343 601 300 601 257.2 601C214.3 601 171.7 601 128.8 601C86 601 43 601 21.5 601L0 601Z" fill="#fafafa" stroke-linecap="round" stroke-linejoin="miter"></path></svg>